<svg width="24" height="24" viewBox="0 0 24 24" fill="none" xmlns="http://www.w3.org/2000/svg">
<g id="Icon / Arrow / Large">
<path id="Union" fill-rule="evenodd" clip-rule="evenodd" d="M11 4.25C11 4.11193 11.112 4 11.25 4H12.75C12.8881 4 13 4.11193 13 4.25V16.4L18.2232 11.1768C18.3209 11.0791 18.4792 11.0791 18.5768 11.1768L19.6375 12.2374C19.7351 12.3351 19.7351 12.4934 19.6375 12.591L12.1721 20.0564C12.1219 20.1065 12.0558 20.1309 11.99 20.1295C11.9243 20.1309 11.8581 20.1065 11.808 20.0564L4.34258 12.591C4.24495 12.4934 4.24495 12.3351 4.34258 12.2374L5.40324 11.1768C5.50087 11.0791 5.65916 11.0791 5.75679 11.1768L11 16.42V4.25Z" fill="black"/>
</g>
</svg>
