<svg version="1.1" id="Capa_1" xmlns="http://www.w3.org/2000/svg" xmlns:xlink="http://www.w3.org/1999/xlink" x="0px" y="0px"
     width="20px" height="20px" viewBox="0 0 20 20" style="enable-background:new 0 0 20 20;"
     xml:space="preserve">
	<g>
		<path d="M 18.2725 8.4743 c 0 -0.6512 -0.525 -1.1819 -1.1819 -1.1819 H 7.2938 L 11.4506 3.1356 c 0.459 -0.459 0.459 -1.2078 0 -1.6753 L 10.3347 0.3443 c -0.459 -0.459 -1.2078 -0.459 -1.6753 0 L 0.5838 8.4198 c -0.2295 0.2295 -0.3471 0.5307 -0.3471 0.8348 c 0 0.3012 0.1176 0.6053 0.3471 0.8348 l 8.0756 8.0756 c 0.459 0.459 1.2078 0.459 1.6753 0 l 1.1159 -1.116 c 0.459 -0.459 0.459 -1.2078 0 -1.6753 L 7.2938 11.2312 h 9.791 c 0.6512 0 1.182 -0.5307 1.182 -1.182 L 18.2725 8.4743 z"/>
	</g>
</svg>
