<svg width="20" height="25" viewBox="0 0 20 25" fill="none" xmlns="http://www.w3.org/2000/svg">
<path d="M15.4179 6.25C15.4179 9.14669 13.0619 11.5 10.1493 11.5C7.23666 11.5 4.88062 9.14669 4.88062 6.25C4.88062 3.35331 7.23666 1 10.1493 1C13.0619 1 15.4179 3.35331 15.4179 6.25Z" fill="#3D7ACF" stroke="#3D7ACF" stroke-width="2"/>
<ellipse cx="10.1492" cy="4.91071" rx="2.68657" ry="2.52976" fill="white"/>
<path d="M4.07463 22.4702C4.07463 23.3123 3.38916 24 2.53731 24C1.68547 24 1 23.3123 1 22.4702C1 21.6282 1.68547 20.9405 2.53731 20.9405C3.38916 20.9405 4.07463 21.6282 4.07463 22.4702Z" fill="white" stroke="#3D7ACF" stroke-width="2"/>
<path d="M18.9999 22.4702C18.9999 23.3123 18.3145 24 17.4626 24C16.6108 24 15.9253 23.3123 15.9253 22.4702C15.9253 21.6282 16.6108 20.9405 17.4626 20.9405C18.3145 20.9405 18.9999 21.6282 18.9999 22.4702Z" fill="white" stroke="#3D7ACF" stroke-width="2"/>
<path d="M11.5373 22.4702C11.5373 23.3123 10.8518 24 9.99996 24C9.14811 24 8.46265 23.3123 8.46265 22.4702C8.46265 21.6282 9.14811 20.9405 9.99996 20.9405C10.8518 20.9405 11.5373 21.6282 11.5373 22.4702Z" fill="white" stroke="#3D7ACF" stroke-width="2"/>
<path d="M14.6269 10.4167V10.4167C13.9807 9.1389 12.6706 8.33334 11.2387 8.33334H9.05976C7.62789 8.33334 6.31781 9.1389 5.67163 10.4167V10.4167" stroke="white" stroke-linecap="round"/>
<path d="M9.55225 12.5H10.4478V20.5357H9.55225V12.5Z" fill="#3D7ACF"/>
<path d="M2.0896 14.881H2.98512V20.5357H2.0896V14.881Z" fill="#3D7ACF"/>
<path d="M17.0149 14.881H17.9104V20.2381H17.0149V14.881Z" fill="#3D7ACF"/>
<path d="M2.68652 15.7738L2.68652 14.881L17.3134 14.881L17.3134 15.7738L2.68652 15.7738Z" fill="#3D7ACF"/>
</svg>
