<svg width="24" height="30" viewBox="0 0 24 30" fill="none" xmlns="http://www.w3.org/2000/svg">
<path d="M3.73413 21.971L7.33159 18.3611C7.8097 17.8805 8.44718 17.6001 9.1245 17.6001H15.3989C16.1199 17.6001 16.5118 18.1696 16.5118 18.7216C16.5118 19.2366 16.2368 19.8831 15.3989 19.8831H11.9903C11.4723 19.8831 11.0739 20.2836 11.0739 20.8043C11.0739 21.325 11.4723 21.7255 11.9903 21.7255H16.4954L21.0161 16.8896C21.3747 16.5292 22.2024 16.3105 22.839 16.8896C23.6203 17.6001 23.3599 18.4733 23.0995 18.7373L18.6821 23.623C18.2438 24.1837 17.5665 24.5442 16.8493 24.5442H10.4745L8.27828 26.7564" stroke="#3D7ACF" stroke-miterlimit="10" stroke-linejoin="round"/>
<path d="M2.86036 21.5951L1.02375 23.4546L6.46455 28.9634L8.30116 27.1038L2.86036 21.5951Z" fill="#3D7ACF" stroke="#3D7ACF"/>
<path d="M16.8136 7.39617C16.8136 10.9472 13.9957 13.7923 10.5606 13.7923C7.12552 13.7923 4.30762 10.9472 4.30762 7.39617C4.30762 3.84514 7.12552 1 10.5606 1C13.9957 1 16.8136 3.84514 16.8136 7.39617Z" fill="#3D7ACF" stroke="#3D7ACF" stroke-width="2"/>
<ellipse cx="10.5607" cy="7.39618" rx="4.26646" ry="4.35069" stroke="white" stroke-width="2" stroke-linecap="round" stroke-dasharray="0.1 3"/>
</svg>
