<svg width="13" height="76" viewBox="0 0 13 76" fill="none" xmlns="http://www.w3.org/2000/svg">
<path d="M6.5 75.5L12.2735 65.5L0.7265 65.5L6.5 75.5ZM5.5 0.5L5.5 2.58333L7.5 2.58333L7.5 0.5L5.5 0.5ZM5.5 6.75L5.5 10.9167L7.5 10.9167L7.5 6.75L5.5 6.75ZM5.5 15.0833L5.5 19.25L7.5 19.25L7.5 15.0833L5.5 15.0833ZM5.5 23.4167L5.5 27.5833L7.5 27.5833L7.5 23.4167L5.5 23.4167ZM5.5 31.75L5.5 35.9167L7.5 35.9167L7.5 31.75L5.5 31.75ZM5.5 40.0833L5.5 44.25L7.5 44.25L7.5 40.0833L5.5 40.0833ZM5.5 48.4167L5.5 52.5833L7.5 52.5833L7.5 48.4167L5.5 48.4167ZM5.5 56.75L5.5 60.9167L7.5 60.9167L7.5 56.75L5.5 56.75ZM5.5 65.0833L5.5 69.25L7.5 69.25L7.5 65.0833L5.5 65.0833Z" fill="#8F8F8F"/>
</svg>
