<svg width="55" height="43" viewBox="0 0 55 43" fill="none" xmlns="http://www.w3.org/2000/svg">
<path fill-rule="evenodd" clip-rule="evenodd" d="M16.4591 14.8663C16.224 14.7921 16.1983 14.4296 16.4173 14.3162C18.6822 13.1431 20.2301 10.7778 20.2301 8.05104C20.2301 4.15686 17.0732 1 13.1791 1C9.28488 1 6.12802 4.15686 6.12802 8.05104C6.12802 10.7593 7.65493 13.111 9.89486 14.2921C10.113 14.4072 10.0846 14.7694 9.8489 14.842C4.88354 16.3703 1.20504 21.2972 1.00829 27.2038C1.00822 27.2061 1.00638 27.2079 1.00415 27.2079C1.00186 27.2079 1 27.2097 1 27.212V27.7024V29.1748C1 29.7271 1.44771 30.1748 2 30.1748H24.2299C24.7822 30.1748 25.2299 29.7271 25.2299 29.1748V27.7024V27.212C25.2299 27.2097 25.2281 27.2079 25.2258 27.2079C25.2235 27.2079 25.2217 27.2061 25.2216 27.2038C25.0259 21.3282 21.3849 16.422 16.4591 14.8663Z" fill="white"/>
<path d="M25.2216 27.2038L26.2211 27.1705L25.2216 27.2038ZM1.00829 27.2038L2.00774 27.2371L1.00829 27.2038ZM9.89486 14.2921L9.42842 15.1767L9.89486 14.2921ZM9.8489 14.842L9.55473 13.8862L9.8489 14.842ZM16.4173 14.3162L16.8772 15.2041L16.4173 14.3162ZM16.4591 14.8663L16.158 15.8199L16.4591 14.8663ZM19.2301 8.05104C19.2301 10.3897 17.9036 12.4202 15.9574 13.4282L16.8772 15.2041C19.4609 13.866 21.2301 11.166 21.2301 8.05104H19.2301ZM13.1791 2C16.5209 2 19.2301 4.70914 19.2301 8.05104H21.2301C21.2301 3.60457 17.6255 0 13.1791 0V2ZM7.12802 8.05104C7.12802 4.70914 9.83716 2 13.1791 2V0C8.73259 0 5.12802 3.60457 5.12802 8.05104H7.12802ZM10.3613 13.4076C8.43651 12.3926 7.12802 10.3738 7.12802 8.05104H5.12802C5.12802 11.1448 6.87335 13.8294 9.42842 15.1767L10.3613 13.4076ZM2.00774 27.2371C2.19172 21.7136 5.62551 17.1882 10.1431 15.7977L9.55473 13.8862C4.14156 15.5523 0.218353 20.8808 0.00884384 27.1705L2.00774 27.2371ZM2 27.7024V27.212H0V27.7024H2ZM2 29.1748V27.7024H0V29.1748H2ZM2 29.1748H2H0C0 30.2794 0.895429 31.1748 2 31.1748V29.1748ZM24.2299 29.1748H2V31.1748H24.2299V29.1748ZM24.2299 29.1748V29.1748V31.1748C25.3345 31.1748 26.2299 30.2794 26.2299 29.1748H24.2299ZM24.2299 27.7024V29.1748H26.2299V27.7024H24.2299ZM24.2299 27.212V27.7024H26.2299V27.212H24.2299ZM16.158 15.8199C20.6404 17.2356 24.0392 21.7428 24.2222 27.2371L26.2211 27.1705C26.0127 20.9135 22.1294 15.6085 16.7603 13.9128L16.158 15.8199ZM25.2258 26.2079C25.769 26.2079 26.2034 26.6399 26.2211 27.1705L24.2222 27.2371C24.24 27.7722 24.6781 28.2079 25.2258 28.2079V26.2079ZM26.2299 27.212C26.2299 26.6574 25.7804 26.2079 25.2258 26.2079V28.2079C24.6758 28.2079 24.2299 27.762 24.2299 27.212H26.2299ZM0.00884384 27.1705C0.0265216 26.6398 0.460992 26.2079 1.00415 26.2079V28.2079C1.55177 28.2079 1.98991 27.7723 2.00774 27.2371L0.00884384 27.1705ZM9.42842 15.1767C9.10368 15.0054 9.03014 14.6886 9.04537 14.5017C9.06072 14.3134 9.18947 13.9986 9.55473 13.8862L10.1431 15.7977C10.744 15.6128 11.0048 15.0806 11.0388 14.6642C11.0726 14.2493 10.9042 13.6938 10.3613 13.4076L9.42842 15.1767ZM1.00415 26.2079C0.449573 26.2079 0 26.6574 0 27.212H2C2 27.762 1.55414 28.2079 1.00415 28.2079V26.2079ZM15.9574 13.4282C15.4124 13.7104 15.2399 14.2646 15.2706 14.6798C15.3015 15.0964 15.5584 15.6305 16.158 15.8199L16.7603 13.9128C17.1248 14.0279 17.2512 14.3436 17.2652 14.5321C17.279 14.7191 17.2031 15.0353 16.8772 15.2041L15.9574 13.4282Z" fill="#202020"/>
<path fill-rule="evenodd" clip-rule="evenodd" d="M45.2294 14.8662C44.9942 14.792 44.9685 14.4295 45.1875 14.3161C47.4524 13.143 49.0001 10.7777 49.0001 8.05104C49.0001 4.15686 45.8433 1 41.9491 1C38.0549 1 34.898 4.15686 34.898 8.05104C34.898 10.7594 36.425 13.1111 38.6651 14.2922C38.8832 14.4072 38.8548 14.7695 38.6191 14.8421C33.654 16.3705 29.9757 21.2971 29.7789 27.2036C29.7788 27.2059 29.7768 27.2079 29.7744 27.2079C29.772 27.2079 29.77 27.2098 29.77 27.2123V29.1748C29.77 29.7271 30.2177 30.1748 30.77 30.1748H52.9999C53.5522 30.1748 53.9999 29.7271 53.9999 29.1748V27.7348C54.0003 27.7242 54.0005 27.7133 54.0005 27.7024C54.0005 27.6597 54.0003 27.6171 53.9999 27.5746V27.2117C53.9999 27.2096 53.9982 27.2079 53.9961 27.2079C53.994 27.2079 53.9923 27.2062 53.9922 27.2041C53.7966 21.3282 50.1554 16.4218 45.2294 14.8662Z" fill="white"/>
<path d="M53.9999 27.7348L53.0005 27.7009L52.9999 27.7179V27.7348H53.9999ZM53.9999 27.5746H52.9999L53 27.5831L53.9999 27.5746ZM29.7789 27.2036L30.7783 27.2369L29.7789 27.2036ZM53.9922 27.2041L54.9917 27.1708L53.9922 27.2041ZM38.6651 14.2922L38.1987 15.1768L38.6651 14.2922ZM38.6191 14.8421L38.3249 13.8863L38.6191 14.8421ZM45.1875 14.3161L44.7276 13.4281L45.1875 14.3161ZM45.2294 14.8662L45.5305 13.9126L45.2294 14.8662ZM48.0001 8.05104C48.0001 10.3896 46.6737 12.4201 44.7276 13.4281L45.6474 15.204C48.231 13.8658 50.0001 11.1659 50.0001 8.05104H48.0001ZM41.9491 2C45.291 2 48.0001 4.70914 48.0001 8.05104H50.0001C50.0001 3.60457 46.3955 0 41.9491 0V2ZM35.898 8.05104C35.898 4.70914 38.6072 2 41.9491 2V0C37.5026 0 33.898 3.60457 33.898 8.05104H35.898ZM39.1315 13.4077C37.2066 12.3927 35.898 10.3739 35.898 8.05104H33.898C33.898 11.1449 35.6435 13.8295 38.1987 15.1768L39.1315 13.4077ZM38.3249 13.8863C32.912 15.5526 28.989 20.8807 28.7794 27.1702L30.7783 27.2369C30.9624 21.7135 34.396 17.1884 38.9133 15.7978L38.3249 13.8863ZM28.77 27.2123V29.1748H30.77V27.2123H28.77ZM28.77 29.1748C28.77 30.2794 29.6654 31.1748 30.77 31.1748V29.1748H30.77H28.77ZM30.77 31.1748H52.9999V29.1748H30.77V31.1748ZM52.9999 31.1748C54.1045 31.1748 54.9999 30.2794 54.9999 29.1748H52.9999V29.1748V31.1748ZM54.9999 29.1748V27.7348H52.9999V29.1748H54.9999ZM54.9994 27.7688C55.0001 27.7465 55.0005 27.7243 55.0005 27.7024H53.0005C53.0005 27.7023 53.0005 27.7018 53.0005 27.7009L54.9994 27.7688ZM55.0005 27.7024C55.0005 27.6569 55.0003 27.6114 54.9999 27.566L53 27.5831C53.0003 27.6228 53.0005 27.6625 53.0005 27.7024H55.0005ZM54.9999 27.5746V27.2117H52.9999V27.5746H54.9999ZM54.9917 27.1708C54.7833 20.9136 50.8999 15.6083 45.5305 13.9126L44.9282 15.8198C49.4109 17.2354 52.8098 21.7429 52.9928 27.2374L54.9917 27.1708ZM28.7794 27.1702C28.7971 26.6401 29.231 26.2079 29.7744 26.2079V28.2079C30.3226 28.2079 30.7605 27.7718 30.7783 27.2369L28.7794 27.1702ZM54.9999 27.2117C54.9999 26.6573 54.5505 26.2079 53.9961 26.2079V28.2079C53.4459 28.2079 52.9999 27.7619 52.9999 27.2117H54.9999ZM53.9961 26.2079C54.5393 26.2079 54.974 26.6399 54.9917 27.1708L52.9928 27.2374C53.0106 27.7724 53.4486 28.2079 53.9961 28.2079V26.2079ZM38.1987 15.1768C37.8739 15.0056 37.8004 14.6888 37.8156 14.5019C37.8309 14.3135 37.9597 13.9988 38.3249 13.8863L38.9133 15.7978C39.5143 15.6128 39.7751 15.0807 39.809 14.6643C39.8428 14.2494 39.6744 13.6939 39.1315 13.4077L38.1987 15.1768ZM29.7744 26.2079C29.2197 26.2079 28.77 26.6575 28.77 27.2123H30.77C30.77 27.7621 30.3243 28.2079 29.7744 28.2079V26.2079ZM44.7276 13.4281C44.1826 13.7104 44.0101 14.2646 44.0409 14.6797C44.0717 15.0964 44.3286 15.6304 44.9282 15.8198L45.5305 13.9126C45.895 14.0277 46.0214 14.3434 46.0354 14.5319C46.0492 14.7189 45.9734 15.0352 45.6474 15.204L44.7276 13.4281Z" fill="#202020"/>
<path fill-rule="evenodd" clip-rule="evenodd" d="M30.7273 26.5398C30.4921 26.4655 30.4664 26.1031 30.6854 25.9896C32.9504 24.8166 34.4982 22.4513 34.4982 19.7246C34.4982 15.8304 31.3413 12.6735 27.4471 12.6735C23.5529 12.6735 20.3961 15.8304 20.3961 19.7246C20.3961 22.4329 21.923 24.7846 24.163 25.9657C24.3811 26.0807 24.3527 26.443 24.1171 26.5155C19.1518 28.0439 15.4734 32.9707 15.2766 38.8773C15.2765 38.8796 15.2746 38.8814 15.2723 38.8814C15.27 38.8814 15.2681 38.8833 15.2681 38.8857V40.8483C15.2681 41.4006 15.7158 41.8483 16.2681 41.8483H38.498C39.0503 41.8483 39.498 41.4006 39.498 40.8483V39.3968L39.4982 39.3759L39.498 39.294V38.8854C39.498 38.8832 39.4962 38.8814 39.494 38.8814C39.4918 38.8814 39.49 38.8797 39.4899 38.8775C39.2943 33.0017 35.6532 28.0955 30.7273 26.5398Z" fill="white"/>
<path d="M39.498 39.3968L38.498 39.3861V39.3968H39.498ZM39.4982 39.3759L40.4982 39.3866L40.4982 39.3732L39.4982 39.3759ZM39.498 39.294H38.498L38.498 39.2967L39.498 39.294ZM15.2766 38.8773L16.276 38.9106L15.2766 38.8773ZM39.4899 38.8775L40.4894 38.8442L39.4899 38.8775ZM24.163 25.9657L23.6966 26.8503L24.163 25.9657ZM24.1171 26.5155L23.8229 25.5598L24.1171 26.5155ZM30.7273 26.5398L30.4261 27.4934L30.7273 26.5398ZM33.4982 19.7246C33.4982 22.0632 32.1717 24.0937 30.2255 25.1017L31.1453 26.8776C33.729 25.5395 35.4982 22.8395 35.4982 19.7246H33.4982ZM27.4471 13.6735C30.789 13.6735 33.4982 16.3827 33.4982 19.7246H35.4982C35.4982 15.2781 31.8936 11.6735 27.4471 11.6735V13.6735ZM21.3961 19.7246C21.3961 16.3827 24.1052 13.6735 27.4471 13.6735V11.6735C23.0007 11.6735 19.3961 15.2781 19.3961 19.7246H21.3961ZM24.6294 25.0811C22.7046 24.0662 21.3961 22.0474 21.3961 19.7246H19.3961C19.3961 22.8184 21.1415 25.503 23.6966 26.8503L24.6294 25.0811ZM23.8229 25.5598C18.4098 27.2259 14.4867 32.5543 14.2771 38.844L16.276 38.9106C16.46 33.3871 19.8938 28.8618 24.4112 27.4713L23.8229 25.5598ZM14.2681 38.8857V40.8483H16.2681V38.8857H14.2681ZM14.2681 40.8483C14.2681 41.9529 15.1635 42.8483 16.2681 42.8483V40.8483H16.2681H14.2681ZM16.2681 42.8483H38.498V40.8483H16.2681V42.8483ZM38.498 42.8483C39.6026 42.8483 40.498 41.9529 40.498 40.8483H38.498V42.8483ZM40.498 40.8483V39.3968H38.498V40.8483H40.498ZM40.4979 39.4075L40.4982 39.3866L38.4983 39.3652L38.498 39.3861L40.4979 39.4075ZM40.4982 39.3732L40.498 39.2913L38.498 39.2967L38.4982 39.3786L40.4982 39.3732ZM40.498 39.294V38.8854H38.498V39.294H40.498ZM40.4894 38.8442C40.281 32.5871 36.3977 27.2819 31.0285 25.5862L30.4261 27.4934C34.9087 28.909 38.3075 33.4164 38.4905 38.9108L40.4894 38.8442ZM14.2771 38.844C14.2948 38.3132 14.7293 37.8814 15.2723 37.8814V39.8814C15.8199 39.8814 16.2582 39.4459 16.276 38.9106L14.2771 38.844ZM40.498 38.8854C40.498 38.3309 40.0485 37.8814 39.494 37.8814V39.8814C38.9439 39.8814 38.498 39.4355 38.498 38.8854H40.498ZM39.494 37.8814C40.0371 37.8814 40.4717 38.3134 40.4894 38.8442L38.4905 38.9108C38.5083 39.4459 38.9464 39.8814 39.494 39.8814V37.8814ZM23.6966 26.8503C23.3718 26.679 23.2983 26.3622 23.3135 26.1753C23.3289 25.9869 23.4576 25.6722 23.8229 25.5598L24.4112 27.4713C25.0122 27.2863 25.273 26.7542 25.3069 26.3378C25.3407 25.9229 25.1723 25.3674 24.6294 25.0811L23.6966 26.8503ZM15.2723 37.8814C14.7177 37.8814 14.2681 38.331 14.2681 38.8857H16.2681C16.2681 39.4356 15.8223 39.8814 15.2723 39.8814V37.8814ZM30.2255 25.1017C29.6805 25.3839 29.508 25.9381 29.5388 26.3533C29.5696 26.7699 29.8265 27.304 30.4261 27.4934L31.0285 25.5862C31.3929 25.7013 31.5194 26.017 31.5333 26.2055C31.5472 26.3925 31.4713 26.7088 31.1453 26.8776L30.2255 25.1017Z" fill="#202020"/>
</svg>
